<svg width="186" height="186" fill="none" xmlns="http://www.w3.org/2000/svg"><path d="M136.029 16.662c12.416 8.85 20.086 22.228 29.337 35.08 9.374 12.851 20.33 25.281 19.599 37.396-.608 12.114-12.903 23.807-22.155 36.869-9.252 13.063-15.338 27.284-27.147 38.872-11.686 11.482-29.094 20.12-46.502 20.12-17.407.105-34.815-8.638-51.128-17.803-16.434-9.27-31.772-18.961-35.79-32.024-4.138-12.957 3.044-29.39 7.061-43.717 4.14-14.22 5.235-26.546 8.157-41.188 3.043-14.643 8.156-31.603 20.45-40.452C50.086.861 69.685.018 88.067 1.704c18.26 1.79 35.546 6.11 47.963 14.958z" stroke="#0F051D" stroke-miterlimit="3.971" stroke-linecap="round" stroke-linejoin="round" stroke-dasharray="4 4"/></svg>